<svg width="17" height="17" viewBox="0 0 17 17" fill="none" xmlns="http://www.w3.org/2000/svg">
<circle cx="8.4" cy="8.4" r="8.4" fill="#038A39" fill-opacity="0.2"/>
<path fill-rule="evenodd" clip-rule="evenodd" d="M10.3136 5.14835C10.1622 5.0731 9.95835 5.00401 9.72112 5.06098C9.60073 5.0899 9.49572 5.14594 9.4031 5.21451C8.45698 4.9821 7.43196 5.10993 6.61118 5.56144C5.70525 6.05978 5.04016 6.96146 5.04016 8.18678C5.04016 9.09848 5.45365 9.96617 6.19345 10.5564V11.3162V11.7485L6.62568 11.7544L7.02506 11.7599L7.02506 11.76H7.03108H7.29558V11.76L7.3018 11.7599L7.68778 11.7544L8.1198 11.7483V11.3162V11.3019C8.30297 11.3172 8.48511 11.3185 8.66368 11.3052V11.3162V11.7487L9.09614 11.7544L9.5112 11.7599L9.5112 11.76H9.51699H9.78143V11.76L9.78792 11.7599L10.1583 11.7544L10.59 11.748V11.3162V10.5551C10.9766 10.2442 11.2866 9.84981 11.4889 9.42586H11.7743H12.2003L12.2124 8.99999L12.2573 7.41152L12.2699 6.96487L11.8231 6.9609L11.4889 6.95792C11.3101 6.58715 11.0507 6.24208 10.7654 5.95949C10.7609 5.91468 10.7542 5.86442 10.7444 5.81174C10.7274 5.7203 10.6977 5.6037 10.642 5.49097C10.5875 5.38066 10.4886 5.23538 10.3136 5.14835ZM7.2433 10.7903V10.8834H7.06995V10.3357V10.1045L6.87909 9.97394C6.25615 9.54794 5.91666 8.88157 5.91666 8.18678C5.91666 7.32151 6.37047 6.69421 7.03364 6.32941C7.71002 5.95734 8.595 5.86821 9.38416 6.1192L9.648 6.20312L9.8371 6.00089C9.85325 5.98362 9.86746 5.96932 9.87985 5.95752L9.88271 5.97203C9.89122 6.01778 9.8955 6.06421 9.89744 6.10064C9.89839 6.1183 9.89871 6.13229 9.89882 6.14104L9.89886 6.1497L9.89886 6.1501L9.89885 6.15051L9.89885 6.15055L9.89479 6.34955L10.0443 6.48375C10.3725 6.7785 10.6527 7.16705 10.7827 7.53841L10.8845 7.82908L11.1925 7.83182L11.3685 7.83339L11.3482 8.54935H11.1964H10.8852L10.7826 8.84318C10.6352 9.26542 10.3225 9.6852 9.90274 9.97507L9.71353 10.1057V10.3357V10.8834H9.54018V10.7903V10.221L8.98984 10.3666C8.63532 10.4604 8.21433 10.4638 7.78039 10.3634L7.2433 10.239V10.7903ZM9.85428 5.87567L9.85526 5.87738C9.85493 5.87674 9.85467 5.87629 9.85451 5.87602C9.85436 5.87577 9.85428 5.87566 9.85428 5.87567ZM9.55633 7.58908V7.58908C9.55633 7.61342 9.54863 7.66184 9.5065 7.70913C9.45943 7.76197 9.39834 7.78049 9.35664 7.78049C9.31888 7.78049 9.27142 7.76549 9.23231 7.72723C9.19376 7.68951 9.17344 7.63867 9.17344 7.58908H9.35664H9.53865L9.35664 7.58902L9.17344 7.58896C9.17346 7.53943 9.19377 7.48857 9.23236 7.45084C9.27149 7.41257 9.31895 7.39761 9.35664 7.39761C9.39826 7.39761 9.45933 7.41608 9.50643 7.46891C9.54862 7.51624 9.55633 7.56472 9.55633 7.58908ZM9.35664 7.05007C9.20807 7.05007 9.06423 7.10752 8.96111 7.22327C8.86293 7.33348 8.82591 7.4688 8.82591 7.58908C8.82591 7.70941 8.86296 7.84475 8.9612 7.95496C9.06436 8.07067 9.20819 8.12803 9.35664 8.12803C9.65752 8.12803 9.90377 7.89438 9.90386 7.58919V7.58908C9.90386 7.28394 9.65767 7.05007 9.35664 7.05007Z" fill="#038A39"/>
</svg>
